PathFileType	4	(X/Y/Z)	./resultDataOpenSim/trcMotMarkerGrf/sub10/qtm-02-01.trc
DataRate	CameraRate	NumFrames	NumMarkers	Units	OrigDataRate	OrigDataStartFrame	OrigNumFrames
250.000000	250.000000	5	24	m	250.000000	231	461
Frame#	Time	L.Toe.Tip			R.Toe.Tip			L.Ankle.Lat			R.Ankle.Lat			L.Ankle.Med			R.Ankle.Med			L.Heel			R.Heel			L.Knee.Lat			R.Knee.Lat			L.Knee.Med			R.Knee.Med			L.Thigh.Upper			R.Thigh.Upper			L.ASIS			R.ASIS			V.Sacral			L.Acromium			R.Acromium			C7			L.Elbow			R.Elbow			L.Wrist.Lat			R.Wrist.Lat
		X1	Y1	Z1	X2	Y2	Z2	X3	Y3	Z3	X4	Y4	Z4	X5	Y5	Z5	X6	Y6	Z6	X7	Y7	Z7	X8	Y8	Z8	X9	Y9	Z9	X10	Y10	Z10	X11	Y11	Z11	X12	Y12	Z12	X13	Y13	Z13	X14	Y14	Z14	X15	Y15	Z15	X16	Y16	Z16	X17	Y17	Z17	X18	Y18	Z18	X19	Y19	Z19	X20	Y20	Z20	X21	Y21	Z21	X22	Y22	Z22	X23	Y23	Z23	X24	Y24	Z24

231	0.92	0.10286714	0.016803169	-0.11439965	-0.080714498	0.086372973	0.037790355	-0.029638365	0.042487519	-0.14344739	-0.16425394	0.20195899	0.042577314	-0.022574508	0.065438091	-0.058962121	-0.11744873	0.19115025	-0.032552715	-0.098864501	0.016376418	-0.10077651	-0.21267512	0.20921648	-0.013427825	0.05725503	0.41999068	-0.18174354	0.11699743	0.44650151	0.083386197	0.053700748	0.4012089	-0.059719465	0.17549413	0.44007314	-0.039715165	0.03083323	0.81412168	-0.25505802	-0.027399236	0.81509784	0.12258644	0.084102807	0.92078931	-0.17656072	0.054309021	0.9128238	0.069536641	-0.12561179	0.9370508	-0.078069092	0.032433129	1.3892542	-0.21896601	0.00076185189	1.3825351	0.10788729	-0.073721272	1.4173712	-0.070210948	-0.0603635	1.0591763	-0.28250702	-0.066186323	1.0344719	0.12527392	0.052345133	0.84386215	-0.30226186	0.084292173	0.83952445	0.12965609
232	0.924	0.10294253	0.016825151	-0.11441247	-0.060035209	0.08479892	0.037587905	-0.029700658	0.042634764	-0.14342524	-0.1470733	0.19760165	0.043119457	-0.022032604	0.065820452	-0.058861807	-0.1005306	0.18862413	-0.032605527	-0.098768143	0.01671282	-0.10065477	-0.19598161	0.20370929	-0.012461609	0.057918603	0.42004031	-0.18186182	0.12854711	0.44942501	0.082990278	0.055138771	0.40119531	-0.060226547	0.18691968	0.44463601	-0.039962597	0.035829534	0.81473428	-0.25446607	-0.02025464	0.81671634	0.12255202	0.089193855	0.9216716	-0.177061	0.060728216	0.91485434	0.068893313	-0.1201538	0.9386348	-0.077160522	0.038536578	1.3903195	-0.21874228	0.0067799333	1.3837789	0.10796084	-0.067445697	1.4185395	-0.070106325	-0.05181109	1.0591471	-0.28320914	-0.061655062	1.0365375	0.12530652	0.065094112	0.84561854	-0.30235191	0.085738151	0.83950733	0.13242812
233	0.928	0.10304097	0.016842689	-0.11439417	-0.039208442	0.083255842	0.037436534	-0.029713602	0.042829116	-0.14337421	-0.12986546	0.19298686	0.04354132	-0.021645419	0.066145879	-0.058785266	-0.083582474	0.1859735	-0.032683677	-0.098671851	0.017090401	-0.10057428	-0.17897462	0.19806148	-0.01136951	0.058541911	0.42011278	-0.18194082	0.13991229	0.45228024	0.082590647	0.056667202	0.40119211	-0.060740587	0.1980664	0.44918594	-0.040234329	0.041490028	0.81526716	-0.25290538	-0.012568227	0.81822992	0.1223381	0.094304234	0.9224986	-0.17753083	0.067155452	0.91678199	0.068231089	-0.11457012	0.94010066	-0.076311687	0.044612106	1.3913228	-0.21852257	0.012785648	1.384953	0.10803169	-0.061186731	1.4196415	-0.070010661	-0.043230359	1.0591648	-0.28371504	-0.057257662	1.0385264	0.12544257	0.077691379	0.84744835	-0.30240836	0.087235508	0.83951686	0.13523543
234	0.932	0.10314467	0.016867694	-0.11438283	-0.018164646	0.081765708	0.037354359	-0.02973576	0.043041528	-0.1433234	-0.1125952	0.18814911	0.043846301	-0.021425488	0.066392605	-0.058717141	-0.066515967	0.18309937	-0.032741929	-0.098553372	0.017467799	-0.1005475	-0.1616271	0.19223393	-0.010209539	0.05910496	0.4202007	-0.18197423	0.15111686	0.4550633	0.082194556	0.058137208	0.40120645	-0.061204004	0.20892781	0.4536932	-0.040540371	0.046985892	0.81565618	-0.25157896	-0.0047846979	0.8197084	0.12212138	0.099411865	0.92325925	-0.17797629	0.073575239	0.91859308	0.067554734	-0.10883472	0.94143547	-0.07554438	0.05065913	1.3922672	-0.21830679	0.01877608	1.386057	0.1081009	-0.054954945	1.4206727	-0.069916464	-0.034657361	1.0592109	-0.2840829	-0.053014654	1.0404091	0.12571903	0.089817596	0.8493713	-0.30223013	0.088781724	0.83957327	0.13796138
235	0.936	0.10322048	0.016902772	-0.11441725	0.0031350958	0.080337548	0.037345127	-0.02979099	0.043255549	-0.14328429	-0.095170884	0.18316355	0.044061623	-0.021444888	0.06652733	-0.058672583	-0.049290107	0.17998142	-0.032794611	-0.098361574	0.017794813	-0.10058448	-0.1439623	0.18613638	-0.0092636365	0.059638021	0.42029291	-0.18197192	0.16217432	0.45777066	0.081801445	0.05928371	0.40124699	-0.061480519	0.21949923	0.45813888	-0.040878713	0.052059578	0.81592218	-0.25089781	0.0028032345	0.82122401	0.12202434	0.1044313	0.92392624	-0.17842353	0.079985108	0.92028429	0.066870672	-0.1030913	0.94268267	-0.074766061	0.056656104	1.3931673	-0.21811323	0.024762627	1.3870924	0.10817359	-0.048744893	1.4216337	-0.06982358	-0.026096169	1.0592407	-0.28438291	-0.04887601	1.0421807	0.12611746	0.1014394	0.85137719	-0.30164979	0.090369511	0.83968804	0.14056083
